PathFileType	4	(X / Y / Z)	Demo_140508_11_September_2019	Demo_140508_11_September_2019.trc
DataRate	CameraRate	NumFrames	NumMarkers	Units	OrigDataRate	OrigDataStartFrame	OrigNumFrames
50	50	12	25	m	50	2290	3585
Frame#	Time		SpineBase		SpineMid		Neck		Head		ShoulderLeft		ElbowLeft		WristLeft		HandLeft		ShoulderRight		ElbowRight		WristRight		HandRight		HipLeft		KneeLeft		AnkleLeft		FootLeft		HipRight		KneeRight		AnkleRight		FootRight		SpineShoulder		HandTipLeft		LeftThumb		HandTipRight		ThumbRight		
X1	Y1	Z1	X2	Y2	Z2	X3	Y3	Z3	X4	Y4	Z4	X5	Y5	Z5	X6	Y6	Z6	X7	Y7	Z7	X8	Y8	Z8	X9	Y9	Z9	X10	Y10	Z10	X11	Y11	Z11	X12	Y12	Z12	X13	Y13	Z13	X14	Y14	Z14	X15	Y15	Z15	X16	Y16	Z16	X17	Y17	Z17	X18	Y18	Z18	X19	Y19	Z19	X20	Y20	Z20	X21	Y21	Z21	X22	Y22	Z22	X23	Y23	Z23	X24	Y24	Z24	X25	Y25	Z25	
2241	56.980	0.097	0.755	1.793	0.090	1.054	1.770	0.081	1.339	1.734	0.077	1.481	1.699	-0.071	1.232	1.733	-0.124	0.963	1.758	-0.207	0.756	1.727	-0.198	0.749	1.728	0.268	1.230	1.734	0.524	1.257	1.703	0.679	1.427	1.660	0.695	1.450	1.652	0.027	0.762	1.762	-0.004	0.491	1.710	-0.014	0.169	1.700	0.018	0.171	1.600	0.162	0.756	1.756	0.168	0.480	1.817	0.096	0.141	1.932	0.119	0.115	1.867	0.084	1.270	1.745	-0.199	0.672	1.719	-0.181	0.743	1.697	0.790	1.554	1.656	0.715	1.516	1.611
2242	56.997	0.097	0.755	1.793	0.090	1.054	1.770	0.081	1.339	1.734	0.077	1.481	1.699	-0.071	1.232	1.733	-0.125	0.963	1.758	-0.206	0.756	1.727	-0.195	0.748	1.730	0.273	1.232	1.736	0.526	1.303	1.703	0.658	1.499	1.658	0.663	1.517	1.655	0.027	0.763	1.761	-0.004	0.491	1.710	-0.011	0.168	1.697	0.016	0.172	1.594	0.162	0.757	1.756	0.168	0.481	1.817	0.096	0.142	1.932	0.118	0.115	1.866	0.084	1.270	1.745	-0.198	0.672	1.720	-0.179	0.743	1.697	0.747	1.625	1.661	0.646	1.560	1.618
2243	57.014	0.097	0.755	1.793	0.090	1.054	1.770	0.081	1.339	1.734	0.077	1.481	1.699	-0.071	1.232	1.733	-0.125	0.963	1.758	-0.206	0.756	1.727	-0.195	0.748	1.730	0.273	1.232	1.736	0.526	1.303	1.703	0.658	1.499	1.658	0.663	1.517	1.655	0.027	0.763	1.761	-0.004	0.491	1.710	-0.011	0.168	1.697	0.016	0.172	1.594	0.162	0.757	1.756	0.168	0.481	1.817	0.096	0.142	1.932	0.118	0.115	1.866	0.084	1.270	1.745	-0.198	0.672	1.720	-0.179	0.743	1.697	0.747	1.625	1.661	0.646	1.560	1.618
2244	57.031	0.097	0.756	1.793	0.090	1.054	1.770	0.081	1.339	1.734	0.077	1.481	1.700	-0.071	1.232	1.733	-0.125	0.963	1.758	-0.205	0.756	1.727	-0.190	0.747	1.731	0.277	1.234	1.737	0.529	1.326	1.703	0.629	1.537	1.664	0.642	1.559	1.660	0.027	0.763	1.761	-0.004	0.491	1.710	-0.007	0.168	1.696	0.014	0.172	1.590	0.163	0.758	1.757	0.168	0.482	1.817	0.096	0.142	1.932	0.117	0.115	1.865	0.084	1.270	1.745	-0.196	0.672	1.720	-0.176	0.742	1.699	0.727	1.667	1.665	0.593	1.593	1.630
2245	57.047	0.097	0.756	1.793	0.090	1.054	1.770	0.081	1.339	1.734	0.077	1.481	1.700	-0.071	1.232	1.733	-0.125	0.963	1.758	-0.205	0.756	1.727	-0.190	0.747	1.731	0.277	1.234	1.737	0.529	1.326	1.703	0.629	1.537	1.664	0.642	1.559	1.660	0.027	0.763	1.761	-0.004	0.491	1.710	-0.007	0.168	1.696	0.014	0.172	1.590	0.163	0.758	1.757	0.168	0.482	1.817	0.096	0.142	1.932	0.117	0.115	1.865	0.084	1.270	1.745	-0.196	0.672	1.720	-0.176	0.742	1.699	0.727	1.667	1.665	0.593	1.593	1.630
2246	57.064	0.098	0.757	1.793	0.091	1.054	1.770	0.081	1.339	1.734	0.077	1.481	1.700	-0.071	1.232	1.733	-0.125	0.963	1.758	-0.201	0.755	1.728	-0.185	0.747	1.733	0.280	1.236	1.738	0.530	1.341	1.704	0.624	1.551	1.666	0.633	1.565	1.667	0.028	0.764	1.760	-0.004	0.492	1.711	0.011	0.191	1.715	0.007	0.189	1.602	0.164	0.760	1.758	0.168	0.483	1.817	0.097	0.145	1.931	0.117	0.117	1.860	0.084	1.270	1.745	-0.193	0.673	1.721	-0.172	0.741	1.700	0.713	1.675	1.666	0.562	1.604	1.646
2247	57.081	0.098	0.757	1.793	0.091	1.054	1.770	0.081	1.339	1.734	0.077	1.481	1.700	-0.071	1.232	1.733	-0.125	0.963	1.758	-0.201	0.755	1.728	-0.185	0.747	1.733	0.280	1.236	1.738	0.530	1.341	1.704	0.624	1.551	1.666	0.633	1.565	1.667	0.028	0.764	1.760	-0.004	0.492	1.711	0.011	0.191	1.715	0.007	0.189	1.602	0.164	0.760	1.758	0.168	0.483	1.817	0.097	0.145	1.931	0.117	0.117	1.860	0.084	1.270	1.745	-0.193	0.673	1.721	-0.172	0.741	1.700	0.713	1.675	1.666	0.562	1.604	1.646
2248	57.097	0.100	0.759	1.793	0.091	1.055	1.770	0.082	1.339	1.734	0.078	1.481	1.700	-0.070	1.232	1.733	-0.124	0.963	1.758	-0.195	0.753	1.728	-0.171	0.713	1.735	0.282	1.238	1.738	0.532	1.352	1.705	0.625	1.560	1.666	0.629	1.554	1.673	0.030	0.766	1.760	-0.004	0.492	1.711	0.012	0.189	1.710	0.005	0.189	1.598	0.166	0.763	1.760	0.168	0.483	1.817	0.097	0.148	1.930	0.117	0.118	1.856	0.084	1.270	1.745	-0.179	0.662	1.728	-0.170	0.721	1.701	0.702	1.662	1.662	0.548	1.598	1.660
2249	57.114	0.100	0.759	1.793	0.091	1.055	1.770	0.082	1.339	1.734	0.078	1.481	1.700	-0.070	1.232	1.733	-0.124	0.963	1.758	-0.195	0.753	1.728	-0.171	0.713	1.735	0.282	1.238	1.738	0.532	1.352	1.705	0.625	1.560	1.666	0.629	1.554	1.673	0.030	0.766	1.760	-0.004	0.492	1.711	0.012	0.189	1.710	0.005	0.189	1.598	0.166	0.763	1.760	0.168	0.483	1.817	0.097	0.148	1.930	0.117	0.118	1.856	0.084	1.270	1.745	-0.179	0.662	1.728	-0.170	0.721	1.701	0.702	1.662	1.662	0.548	1.598	1.660
2250	57.131	0.101	0.761	1.794	0.092	1.055	1.770	0.082	1.339	1.734	0.078	1.481	1.700	-0.069	1.232	1.733	-0.123	0.963	1.757	-0.189	0.751	1.729	-0.161	0.698	1.736	0.283	1.239	1.738	0.532	1.359	1.706	0.632	1.554	1.670	0.659	1.559	1.670	0.031	0.767	1.759	-0.004	0.492	1.711	0.015	0.203	1.706	-0.014	0.203	1.597	0.168	0.765	1.761	0.168	0.483	1.817	0.098	0.150	1.930	0.117	0.120	1.852	0.084	1.270	1.745	-0.167	0.655	1.731	-0.168	0.715	1.700	0.727	1.620	1.659	0.659	1.557	1.638
2251	57.147	0.101	0.761	1.794	0.092	1.055	1.770	0.082	1.339	1.734	0.078	1.481	1.700	-0.069	1.232	1.733	-0.123	0.963	1.757	-0.189	0.751	1.729	-0.161	0.698	1.736	0.283	1.239	1.738	0.532	1.359	1.706	0.632	1.554	1.670	0.659	1.559	1.670	0.031	0.767	1.759	-0.004	0.492	1.711	0.015	0.203	1.706	-0.014	0.203	1.597	0.168	0.765	1.761	0.168	0.483	1.817	0.098	0.150	1.930	0.117	0.120	1.852	0.084	1.270	1.745	-0.167	0.655	1.731	-0.168	0.715	1.700	0.727	1.620	1.659	0.659	1.557	1.638
2252	57.164	0.103	0.762	1.794	0.092	1.055	1.770	0.082	1.340	1.734	0.079	1.481	1.700	-0.068	1.233	1.733	-0.121	0.963	1.757	-0.183	0.750	1.729	-0.156	0.690	1.736	0.284	1.240	1.738	0.533	1.357	1.710	0.675	1.501	1.677	0.662	1.484	1.678	0.033	0.768	1.759	-0.004	0.491	1.711	0.013	0.196	1.700	-0.013	0.198	1.591	0.170	0.767	1.762	0.167	0.483	1.817	0.098	0.152	1.929	0.117	0.121	1.849	0.085	1.270	1.745	-0.157	0.649	1.733	-0.159	0.712	1.702	0.731	1.525	1.652	0.653	1.521	1.653
